<svg width="542" height="176" viewBox="0 0 542 176" fill="none" xmlns="http://www.w3.org/2000/svg">
<g clip-path="url(#clip0_3423_60)">
<path d="M34.137 133.836C27.4261 133.836 22.0488 132.202 18.005 128.932C13.9613 125.663 11.9394 119.855 11.9394 111.51V83.6338H0.969727V69.8248H11.9394L13.8753 52.6604H28.4586V69.8248H45.7521V83.6338H28.4586V111.639C28.4586 114.736 29.1038 116.887 30.3944 118.091C31.771 119.21 34.094 119.769 37.3633 119.769H45.3649V133.836H34.137Z" fill="#2A1E4F"/>
<path d="M79.42 135.385C73.914 135.385 69.397 134.525 65.8693 132.804C62.342 130.997 59.7178 128.631 57.9969 125.706C56.2764 122.781 55.416 119.555 55.416 116.027C55.416 110.09 57.739 105.272 62.385 101.573C67.031 97.8732 74 96.0234 83.292 96.0234H99.5529V94.4744C99.5529 90.0867 98.3053 86.8603 95.8103 84.7956C93.315 82.7305 90.218 81.6982 86.5184 81.6982C83.163 81.6982 80.2375 82.5156 77.7426 84.1501C75.2473 85.699 73.6987 88.022 73.0966 91.1191H56.9646C57.3948 86.4731 58.9433 82.4296 61.6105 78.9879C64.3638 75.5466 67.8914 72.9224 72.1932 71.1155C76.4949 69.2228 81.3132 68.2764 86.6473 68.2764C95.7674 68.2764 102.951 70.5564 108.2 75.1164C113.448 79.6764 116.072 86.1289 116.072 94.4744V133.836H102.005L100.456 123.512C98.5635 126.953 95.8963 129.793 92.455 132.03C89.0993 134.267 84.7545 135.385 79.42 135.385ZM83.163 122.48C87.895 122.48 91.5516 120.931 94.1325 117.834C96.7997 114.736 98.4776 110.908 99.1657 106.348H85.0988C80.7107 106.348 77.5703 107.165 75.6775 108.8C73.7847 110.349 72.8383 112.284 72.8383 114.607C72.8383 117.102 73.7847 119.038 75.6775 120.415C77.5703 121.791 80.0656 122.48 83.163 122.48Z" fill="#2A1E4F"/>
<path d="M129.258 133.836V40.9165H145.777V133.836H129.258Z" fill="#2A1E4F"/>
<path d="M191.176 135.385C184.723 135.385 179.002 134.009 174.011 131.256C169.022 128.502 165.107 124.63 162.268 119.641C159.428 114.65 158.009 108.886 158.009 102.347C158.009 95.7221 159.385 89.8285 162.139 84.6663C164.978 79.5041 168.849 75.5036 173.754 72.6641C178.744 69.7389 184.594 68.2764 191.305 68.2764C197.586 68.2764 203.135 69.653 207.953 72.4062C212.771 75.1594 216.514 78.945 219.181 83.7629C221.934 88.4952 223.311 93.7863 223.311 99.637C223.311 100.583 223.268 101.573 223.182 102.605C223.182 103.637 223.139 104.713 223.053 105.832H174.399C174.743 110.822 176.464 114.736 179.561 117.575C182.744 120.415 186.573 121.834 191.047 121.834C194.402 121.834 197.198 121.103 199.435 119.641C201.758 118.092 203.479 116.113 204.598 113.704H221.375C220.17 117.748 218.149 121.447 215.309 124.803C212.556 128.072 209.115 130.653 204.985 132.546C200.941 134.439 196.338 135.385 191.176 135.385ZM191.305 81.6982C187.261 81.6982 183.691 82.8595 180.594 85.1825C177.496 87.4195 175.517 90.8612 174.657 95.5072H206.534C206.276 91.2914 204.727 87.9357 201.888 85.4407C199.048 82.9458 195.521 81.6982 191.305 81.6982Z" fill="#2A1E4F"/>
<path d="M234.623 133.836V69.8249H249.207L250.497 80.6658C252.476 76.8802 255.315 73.8687 259.015 71.6317C262.8 69.3947 267.231 68.2764 272.308 68.2764C280.223 68.2764 286.374 70.7713 290.762 75.7615C295.15 80.7518 297.344 88.065 297.344 97.7009V133.836H280.825V99.2498C280.825 93.7433 279.707 89.5276 277.47 86.6024C275.233 83.6769 271.748 82.2143 267.016 82.2143C262.37 82.2143 258.541 83.8492 255.53 87.1186C252.605 90.388 251.142 94.948 251.142 100.798V133.836H234.623Z" fill="#2A1E4F"/>
<path d="M339.08 133.836C332.369 133.836 326.992 132.202 322.949 128.932C318.905 125.663 316.883 119.855 316.883 111.51V83.6338H305.913V69.8248H316.883L318.819 52.6604H333.402V69.8248H350.695V83.6338H333.402V111.639C333.402 114.736 334.047 116.887 335.338 118.091C336.714 119.21 339.037 119.769 342.307 119.769H350.308V133.836H339.08Z" fill="#2A1E4F"/>
<path d="M408.91 133.674V40.7544H425.428V133.674H408.91Z" fill="#2A1E4F"/>
<path d="M447.728 162.066L462.57 129.415H458.698L433.789 69.6628H451.729L469.668 114.703L488.379 69.6628H505.933L465.282 162.066H447.728Z" fill="#2A1E4F"/>
<path d="M372.292 161.906C370.066 161.906 368.261 160.101 368.261 157.873V16.7188C368.261 14.4914 370.066 12.6858 372.292 12.6858H398.509C399.622 12.6858 400.526 13.5886 400.526 14.7023V24.0911C400.526 25.2048 399.622 26.1075 398.509 26.1075H385.765C384.651 26.1075 383.748 27.0104 383.748 28.1241V146.339C383.748 147.453 384.651 148.355 385.765 148.355H398.509C399.622 148.355 400.526 149.258 400.526 150.372V159.89C400.526 161.003 399.622 161.906 398.509 161.906H372.292Z" fill="#2A1E4F"/>
<path d="M535.62 69.1555C536.736 69.1511 537.644 70.0553 537.644 71.1721V157.873C537.644 160.1 535.84 161.906 533.61 161.906L507.397 161.906C506.284 161.906 505.38 161.003 505.38 159.889V150.5C505.38 149.387 506.284 148.484 507.397 148.484H520.142C521.255 148.484 522.159 147.581 522.159 146.468V71.2199C522.159 70.1093 523.055 69.2081 524.164 69.2033L535.62 69.1555Z" fill="#2A1E4F"/>
<path d="M535.62 44.9412C536.736 44.9459 537.644 44.0417 537.644 42.9247V16.7188C537.644 14.4914 535.84 12.6858 533.61 12.6858L507.397 12.6858C506.284 12.6858 505.38 13.5886 505.38 14.7023V24.0911C505.38 25.2048 506.284 26.1076 507.397 26.1076L520.142 26.1075C521.255 26.1075 522.159 27.0104 522.159 28.1241V42.877C522.159 43.9874 523.055 44.8889 524.164 44.8935L535.62 44.9412Z" fill="#FF4343"/>
</g>
<defs>
<clipPath id="clip0_3423_60">
<rect width="540.061" height="174.213" fill="white" transform="translate(0.969727 0.893555)"/>
</clipPath>
</defs>
</svg>
